:FULLY-SPECIFIED
:FORCE-ALL-JOINTS-BE-3DOF
:DEGREES
2548
root 4.19366 13.6884 -23.4393 -71.8046 87.5033 -74.18
lfemur -37.9185 12.2533 -11.9134
ltibia 89.8292 -0 0
lfoot -27.9351 25.7024 -0.00667771
ltoes -39.0773 0 0
rfemur -56.8987 -24.8827 9.65398
rtibia 63.4091 -0 0
rfoot 1.22698 7.69231 0.152615
rtoes 8.20112 -0 0
lowerback 16.7032 -0.418626 -3.54853
upperback -1.10272 -0.900304 3.12047
thorax -10.5263 -0.101389 5.6775
lowerneck 5.12238 -14.6107 -15.1586
upperneck 0.183125 -20.4549 14.7682
head 2.32195 -10.3723 6.14841
lclavicle -2.67632e-14 1.42375e-14 1.31688e-31
lhumerus -53.1787 -45.0864 115.114
lradius 107.509 -0 0
lwrist 81.8758 0 0
lhand 8.98472 40.2607 -0.0137968
lfingers 7.12502 -0 0
lthumb 34.1619 66.9991 -0.0159425
rclavicle -2.67632e-14 1.42375e-14 1.31688e-31
rhumerus 8.50518 -14.5856 -60.9931
rradius 76.3349 -0 0
rwrist 28.2671 0 0
rhand -38.3745 -48.7011 0.0975785
rfingers 7.12502 -0 0
rthumb -11.3996 -78.3399 0.0925201
2549
root 4.16428 13.6981 -23.5356 -46.2245 86.7811 -48.7219
lfemur -38.0407 12.367 -12.1054
ltibia 89.7114 -0 0
lfoot -27.9945 25.797 -0.0092785
ltoes -38.9845 0 0
rfemur -56.9607 -24.7498 9.91565
rtibia 64.0266 -0 0
rfoot 0.992209 7.15798 0.212147
rtoes 8.21835 -0 0
lowerback 16.7492 -0.384365 -3.60282
upperback -1.09293 -0.869653 3.10051
thorax -10.5459 -0.0842396 5.67905
lowerneck 5.11864 -14.6138 -15.1633
upperneck 0.184606 -20.4641 14.8498
head 2.33428 -10.3775 6.17129
lclavicle -2.61975e-14 1.40416e-14 1.82975e-31
lhumerus -52.6916 -45.4609 115.094
lradius 107.281 -0 0
lwrist 81.6793 0 0
lhand 8.86902 40.3608 -0.0191705
lfingers 7.12502 -0 0
lthumb 34.0516 67.1206 -0.0221521
rclavicle -2.61975e-14 1.40416e-14 1.82975e-31
rhumerus 9.22865 -13.5458 -60.7596
rradius 76.6513 -0 0
rwrist 27.9502 0 0
rhand -38.0585 -48.4442 0.135611
rfingers 7.12502 -0 0
rthumb -11.0944 -78.0873 0.128596
2550
root 4.13054 13.7092 -23.6461 -30.2204 85.499 -32.858
lfemur -38.1815 12.4972 -12.3264
ltibia 89.5761 -0 0
lfoot -28.0627 25.9056 -0.0121448
ltoes -38.8778 0 0
rfemur -57.0309 -24.597 10.2157
rtibia 64.7358 -0 0
rfoot 0.721804 6.54378 0.277838
rtoes 8.23814 -0 0
lowerback 16.8021 -0.344958 -3.66515
upperback -1.0817 -0.834443 3.0776
thorax -10.5685 -0.0645413 5.68081
lowerneck 5.11435 -14.6173 -15.1687
upperneck 0.18629 -20.4747 14.9435
head 2.34843 -10.3835 6.19757
lclavicle -2.55477e-14 1.38166e-14 2.39495e-31
lhumerus -52.128 -45.8908 115.064
lradius 107.02 -0 0
lwrist 81.4536 0 0
lhand 8.73612 40.4759 -0.025093
lfingers 7.12502 -0 0
lthumb 33.925 67.2601 -0.0289958
rclavicle -2.55477e-14 1.38166e-14 2.39495e-31
rhumerus 10.0613 -12.3551 -60.476
rradius 77.0147 -0 0
rwrist 27.5862 0 0
rhand -37.6953 -48.1489 0.177544
rfingers 7.12502 -0 0
rthumb -10.7436 -77.7972 0.168357
2551
root 4.09273 13.7216 -23.77 -20.8829 83.844 -23.6778
lfemur -38.34 12.6424 -12.5745
ltibia 89.4245 -0 0
lfoot -28.1391 26.0273 -0.0152028
ltoes -38.7583 0 0
rfemur -57.1084 -24.4253 10.5511
rtibia 65.5303 -0 0
rfoot 0.418067 5.85537 0.347979
rtoes 8.26031 -0 0
lowerback 16.8613 -0.300735 -3.73494
upperback -1.06913 -0.794987 3.05194
thorax -10.5939 -0.0424695 5.68278
lowerneck 5.10955 -14.6212 -15.1747
upperneck 0.188154 -20.4866 15.0486
head 2.36429 -10.3903 6.22702
lclavicle -2.48197e-14 1.35645e-14 2.99792e-31
lhumerus -51.4908 -46.3723 115.023
lradius 106.728 -0 0
lwrist 81.2007 0 0
lhand 8.5872 40.6049 -0.0314117
lfingers 7.12502 -0 0
lthumb 33.7832 67.4165 -0.0362974
rclavicle -2.48197e-14 1.35645e-14 2.99792e-31
rhumerus 10.997 -11.0259 -60.1388
rradius 77.4218 -0 0
rwrist 27.1784 0 0
rhand -37.2881 -47.8177 0.222301
rfingers 7.12502 -0 0
rthumb -10.3505 -77.4717 0.210796
2552
root 4.05116 13.7353 -23.9062 -15.1371 81.9207 -18.1052
lfemur -38.5152 12.8012 -12.848
ltibia 89.2579 -0 0
lfoot -28.2232 26.1611 -0.0183777
ltoes -38.6269 0 0
rfemur -57.1923 -24.236 10.9194
rtibia 66.404 -0 0
rfoot 0.083149 5.09801 0.420882
rtoes 8.28469 -0 0
lowerback 16.9263 -0.252027 -3.81162
upperback -1.05532 -0.751597 3.02374
thorax -10.6217 -0.0181997 5.68493
lowerneck 5.10426 -14.6255 -15.1813
upperneck 0.190178 -20.4996 15.1641
head 2.38173 -10.3977 6.25939
lclavicle -2.40192e-14 1.32873e-14 3.62393e-31
lhumerus -50.783 -46.9012 114.968
lradius 106.406 -0 0
lwrist 80.9227 0 0
lhand 8.42344 40.7467 -0.0379724
lfingers 7.12502 -0 0
lthumb 33.6271 67.5885 -0.0438788
rclavicle -2.40192e-14 1.32873e-14 3.62393e-31
rhumerus 12.0306 -9.57086 -59.7444
rradius 77.8695 -0 0
rwrist 26.73 0 0
rhand -36.8399 -47.4531 0.268806
rfingers 7.12502 -0 0
rthumb -9.91777 -77.1135 0.254889
